<svg width="199" height="176" viewBox="0 0 199 176" fill="none" xmlns="http://www.w3.org/2000/svg">
<path d="M182.587 10.4707H0V175.176H182.587V10.4707Z" fill="#0169EE"/>
<path d="M198.923 2.16162H10.2638V167.813H198.923V2.16162Z" fill="white"/>
<path d="M194.321 2.16162H59.0389V21.4876H194.321V2.16162Z" fill="#263238" stroke="#263238" stroke-width="3.37725" stroke-linecap="round" stroke-linejoin="round"/>
<path d="M194.342 2H10.305V13.6705H194.342V2Z" fill="white" stroke="#263238" stroke-width="3.37725" stroke-linecap="round" stroke-linejoin="round"/>
<path d="M130.605 40.5972H18.3894V112.418H130.605V40.5972Z" fill="#7599D6"/>
<path d="M130.821 104.313H18.5463V112.596H130.821V104.313Z" fill="black"/>
<path d="M88.4945 84.143C93.265 76.3613 90.824 66.1857 83.0423 61.4152C75.2605 56.6447 65.0849 59.0858 60.3144 66.8675C55.5439 74.6492 57.985 84.8248 65.7667 89.5953C73.5484 94.3658 83.724 91.9247 88.4945 84.143Z" fill="#0169EE"/>
<path d="M84.0173 75.9019L69.6362 67.6008V84.2031L84.0173 75.9019Z" fill="white"/>
<path d="M141.596 68.0344V41.5175H184.066V68.0344H141.596Z" fill="white" stroke="#263238" stroke-width="1.84057" stroke-linecap="round" stroke-linejoin="round"/>
<path d="M162.069 61.1621C165.671 61.1621 168.592 58.2419 168.592 54.6398C168.592 51.0376 165.671 48.1174 162.069 48.1174C158.467 48.1174 155.547 51.0376 155.547 54.6398C155.547 58.2419 158.467 61.1621 162.069 61.1621Z" fill="#0169EE"/>
<path d="M165.844 54.7804L160.168 51.5051V58.0557L165.844 54.7804Z" fill="white"/>
<path d="M141.596 99.1967V72.6798H184.066V99.1967H141.596Z" fill="white" stroke="#263238" stroke-width="1.84057" stroke-linecap="round" stroke-linejoin="round"/>
<path d="M168.592 85.8016C168.594 84.5094 168.212 83.2456 167.496 82.1702C166.779 81.0949 165.76 80.2562 164.566 79.7604C163.373 79.2646 162.059 79.1339 160.792 79.3849C159.524 79.6358 158.359 80.2572 157.445 81.1703C156.53 82.0834 155.907 83.2472 155.655 84.5145C155.402 85.7818 155.531 87.0956 156.025 88.2896C156.519 89.4837 157.356 90.5044 158.43 91.2225C159.505 91.9406 160.768 92.3239 162.06 92.324C163.791 92.324 165.451 91.6371 166.675 90.4142C167.9 89.1913 168.589 87.5323 168.592 85.8016Z" fill="#0169EE"/>
<path d="M165.844 85.943L160.168 82.6677V89.2183L165.844 85.943Z" fill="white"/>
<path d="M141.596 130.359V103.842H184.066V130.359H141.596Z" fill="white" stroke="#263238" stroke-width="1.84057" stroke-linecap="round" stroke-linejoin="round"/>
<path d="M168.592 116.964C168.594 115.672 168.212 114.408 167.496 113.333C166.779 112.257 165.76 111.419 164.566 110.923C163.373 110.427 162.059 110.296 160.792 110.547C159.524 110.798 158.359 111.42 157.445 112.333C156.53 113.246 155.907 114.41 155.655 115.677C155.402 116.944 155.531 118.258 156.025 119.452C156.519 120.646 157.356 121.667 158.43 122.385C159.505 123.103 160.768 123.487 162.06 123.487C163.791 123.487 165.451 122.8 166.675 121.577C167.9 120.354 168.589 118.695 168.592 116.964Z" fill="#0169EE"/>
<path d="M165.843 117.105L160.168 113.83V120.381L165.843 117.105Z" fill="white"/>
<path d="M141.596 161.521V135.004H184.066V161.521H141.596Z" fill="white" stroke="#263238" stroke-width="1.84057" stroke-linecap="round" stroke-linejoin="round"/>
<path d="M168.592 148.126C168.594 146.833 168.212 145.57 167.496 144.494C166.779 143.419 165.76 142.58 164.566 142.084C163.373 141.589 162.059 141.458 160.792 141.709C159.524 141.96 158.359 142.581 157.445 143.494C156.53 144.407 155.907 145.571 155.655 146.838C155.402 148.106 155.531 149.42 156.025 150.614C156.519 151.808 157.356 152.828 158.43 153.546C159.505 154.265 160.768 154.648 162.06 154.648C163.791 154.648 165.451 153.961 166.675 152.738C167.9 151.515 168.589 149.856 168.592 148.126Z" fill="#0169EE"/>
<path d="M165.843 148.267L160.168 144.992V151.542L165.843 148.267Z" fill="white"/>
<path d="M19.2572 119.995H105.196" stroke="#263238" stroke-width="3.37725" stroke-linecap="round" stroke-linejoin="round"/>
<path d="M19.4666 144.806H117.937" stroke="#263238" stroke-width="3.37725" stroke-linecap="round" stroke-linejoin="round"/>
<path d="M19.4666 151.248H96.7707" stroke="#263238" stroke-width="3.37725" stroke-linecap="round" stroke-linejoin="round"/>
<path d="M19.4666 157.69H126.22" stroke="#263238" stroke-width="3.37725" stroke-linecap="round" stroke-linejoin="round"/>
<path d="M19.2572 126.612H127.859" stroke="#263238" stroke-width="3.37725" stroke-linecap="round" stroke-linejoin="round"/>
</svg>
